Coordinates
version=1
nRows=9
nColumns=42
inDegrees=yes

Units are S.I. units (second, meters, Newtons, ...)
If the header above contains a line with 'inDegrees', this indicates whether rotational values are in degrees (yes) or radians (no).

endheader
time	pelvis_tilt	pelvis_list	pelvis_rotation	pelvis_tx	pelvis_ty	pelvis_tz	hip_flexion_r	hip_adduction_r	hip_rotation_r	knee_angle_r	knee_adduction_r	knee_angle_r_beta	ankle_angle_r	subtalar_angle_r	mtp_angle_r	hip_flexion_l	hip_adduction_l	hip_rotation_l	knee_angle_l	knee_adduction_l	knee_angle_l_beta	ankle_angle_l	subtalar_angle_l	mtp_angle_l	lumbar_extension	lumbar_bending	lumbar_rotation	arm_flex_r	arm_add_r	arm_rot_r	elbow_flex_r	pro_sup_r	wrist_flex_r	wrist_dev_r	arm_flex_l	arm_add_l	arm_rot_l	elbow_flex_l	pro_sup_l	wrist_flex_l	wrist_dev_l
      1.32000000	     13.29407488	     -5.60288902	      4.22364973	      0.28499031	      0.85337746	     -0.16161014	      3.57376500	      7.12818905	    -10.32134661	     18.15069133	      1.70160752	      0.31678933	     10.31008888	     -9.83637483	     -7.51044478	    -24.09380106	    -10.86724268	      0.62121984	     42.51019070	      9.75832623	      0.74194279	     -8.28351007	    -14.19158187	     -7.51044478	    -24.55674063	      6.50579677	      4.63788713	     -7.31221693	     -7.33917338	     -9.36465847	     26.60593697	     90.00000001	      0.00000000	      0.00000000	     22.12386360	     -6.21089365	      8.65632568	     38.41674493	     90.00000001	      0.00000000	      0.00000000
      1.33000000	     13.47733945	     -5.61852751	      4.08525889	      0.29635388	      0.85490669	     -0.16025037	      2.35050705	      7.39252040	    -10.18215436	     17.80042360	      1.64503179	      0.31067600	     11.05478293	     -9.25403649	     -7.51016227	    -22.72903090	    -11.06703397	      0.85711452	     45.60209519	      9.55463386	      0.79590671	     -8.73435968	    -15.25514852	     -7.51016227	    -24.75795847	      6.46016731	      4.81328669	     -6.35880678	     -7.49763984	     -9.23291575	     26.70143747	     90.00000001	      0.00000000	      0.00000000	     21.33750338	     -6.20771610	      8.63982757	     37.27210646	     90.00000001	      0.00000000	      0.00000000
      1.34000000	     13.64097753	     -5.61608391	      3.90925823	      0.30748768	      0.85634163	     -0.15892781	      1.15565643	      7.61227506	    -10.14169862	     17.43747687	      1.58509831	      0.30434138	     11.77110474	     -8.57539762	     -7.50992218	    -21.25947545	    -11.19057191	      0.71744373	     48.60462153	      9.00918312	      0.84831068	     -8.30043613	    -16.15007263	     -7.50992218	    -24.96204278	      6.37469095	      4.99289054	     -5.32087138	     -7.67381863	     -9.07961154	     26.84005352	     90.00000001	      0.00000000	      0.00000000	     20.55379634	     -6.21712163	      8.60748465	     36.15801359	     90.00000001	      0.00000000	      0.00000000
      1.35000000	     13.61168462	     -5.73661955	      3.65782049	      0.31828942	      0.85741547	     -0.15738016	      0.32272336	      8.01397160	    -10.17888120	     17.30358707	      1.32208714	      0.30200457	     12.49082786	     -7.73060110	     -7.50946963	    -19.41009173	    -11.48185135	     -0.22746072	     51.71659476	      7.96471074	      0.90262486	     -7.15032575	    -16.40003058	     -7.50946963	    -24.99306166	      6.36618632	      5.30772526	     -4.24214242	     -7.86441176	     -8.83694929	     26.93679741	     90.00000001	      0.00000000	      0.00000000	     19.77980383	     -6.13236967	      8.30965084	     34.99007352	     90.00000001	      0.00000000	      0.00000000
      1.36000000	     13.78262083	     -5.64931872	      3.50963316	      0.32909563	      0.85882107	     -0.15615502	     -0.87151334	      8.11488556	    -10.12213934	     16.95494805	      1.26179555	      0.29591967	     13.19554068	     -7.02792802	     -7.50898509	    -17.80119353	    -11.47761946	     -1.26157582	     54.34941449	      6.54139257	      0.94857623	     -5.51495961	    -16.56721502	     -7.50898509	    -25.23233670	      6.17996671	      5.47275163	     -3.15071809	     -8.03096002	     -8.58545330	     27.17147510	     90.00000001	      0.00000000	      0.00000000	     18.99579138	     -6.09750434	      8.05255126	     33.90297184	     90.00000001	      0.00000000	      0.00000000
      1.37000000	     14.01553259	     -5.50106034	      3.36225964	      0.33981336	      0.86034665	     -0.15498295	     -2.19742205	      8.14238874	     -9.84414997	     16.48628094	      1.26785188	      0.28773988	     13.78657769	     -6.57451463	     -7.50857303	    -16.26266856	    -11.40013125	     -2.46814204	     56.58868679	      4.96225899	      0.98765890	     -3.72287849	    -16.71688899	     -7.50857303	    -25.54043405	      5.92562627	      5.63047306	     -2.02571179	     -8.18212647	     -8.32498866	     27.42099385	     90.00000001	      0.00000000	      0.00000000	     18.20703500	     -6.09282558	      7.85475408	     32.85858434	     90.00000001	      0.00000000	      0.00000000
      1.38000000	     14.46256240	     -5.14781452	      3.18803774	      0.35019562	      0.86224564	     -0.15366260	     -3.66745979	      7.93716232	     -9.78247194	     16.23948429	      1.21314399	      0.28343247	     14.13362208	     -6.25895566	     -7.50844966	    -15.03664441	    -11.10444596	     -2.92416752	     58.29950134	      4.06701816	      1.01751825	     -2.06352196	    -17.20958645	     -7.50844966	    -26.15291369	      5.40714802	      5.78585718	     -0.86257529	     -8.24344889	     -8.19686093	     27.84043296	     90.00000001	      0.00000000	      0.00000000	     17.41594970	     -6.22403667	      7.83771033	     32.17946057	     90.00000001	      0.00000000	      0.00000000
      1.39000000	     14.68467173	     -4.84250431	      3.17535113	      0.36061887	      0.86376941	     -0.15280473	     -5.04330441	      7.72279466	     -9.44936876	     15.63380876	      1.36572252	      0.27286144	     14.67665728	     -5.89360691	     -7.50830827	    -13.42833724	    -10.76008138	     -3.78074902	     59.82905331	      2.51268423	      1.04421397	     -0.04481094	    -17.53127755	     -7.50830827	    -26.45006382	      5.03320547	      5.75266184	      0.31255318	     -8.34143999	     -7.99471755	     28.15704061	     90.00000001	      0.00000000	      0.00000000	     16.60170091	     -6.30451833	      7.81837645	     31.23108803	     90.00000001	      0.00000000	      0.00000000
      1.40000000	     14.77662395	     -4.73596128	      2.80191320	      0.37123377	      0.86508119	     -0.15173660	     -6.48028703	      7.74948819	     -8.05274878	     14.58456614	      1.55518326	      0.25454870	     15.10935455	     -6.11689374	     -7.50793941	    -11.73293792	    -10.61532068	     -6.23606552	     61.05290645	      0.13549141	      1.06557424	      1.86227240	    -16.66087821	     -7.50793941	    -26.56128721	      4.77515133	      6.06608933	      1.49793762	     -8.59108860	     -7.34781335	     28.34852211	     90.00000001	      0.00000000	      0.00000000	     15.75421775	     -6.14603568	      7.25639607	     29.92141776	     90.00000001	      0.00000000	      0.00000000
